<svg width="1154" height="831" viewBox="0 0 1154 831" fill="none" xmlns="http://www.w3.org/2000/svg">
<rect width="1154" height="831" fill="#E5E5E5"/>
<g id="undraw_social_sharing_ibwq 1" clip-path="url(#clip0)">
<path id="Vector" d="M1091.07 105.65H1063.99C1059.02 105.624 1054.23 107.568 1050.68 111.059C1047.13 114.549 1045.1 119.302 1045.04 124.28V150.89C1045.1 155.867 1047.13 160.619 1050.68 164.107C1054.23 167.596 1059.02 169.538 1063.99 169.51H1091.07C1096.05 169.538 1100.84 167.596 1104.39 164.107C1107.94 160.619 1109.96 155.867 1110.02 150.89V124.28C1109.96 119.302 1107.94 114.549 1104.39 111.059C1100.84 107.568 1096.05 105.624 1091.07 105.65ZM1077.53 148.23C1075.44 148.194 1073.4 147.539 1071.67 146.347C1069.94 145.156 1068.61 143.481 1067.83 141.533C1067.05 139.585 1066.87 137.45 1067.3 135.397C1067.73 133.345 1068.76 131.465 1070.25 129.994C1071.75 128.523 1073.64 127.527 1075.7 127.13C1077.76 126.734 1079.9 126.955 1081.83 127.765C1083.77 128.575 1085.42 129.939 1086.58 131.685C1087.74 133.432 1088.36 135.482 1088.36 137.58C1088.34 140.427 1087.18 143.147 1085.15 145.143C1083.12 147.14 1080.38 148.25 1077.53 148.23L1077.53 148.23ZM1095.13 124.28C1094.35 124.266 1093.58 124.021 1092.94 123.574C1092.29 123.127 1091.79 122.499 1091.5 121.769C1091.21 121.039 1091.14 120.238 1091.3 119.469C1091.46 118.699 1091.85 117.995 1092.41 117.444C1092.97 116.893 1093.68 116.519 1094.45 116.371C1095.22 116.223 1096.02 116.306 1096.75 116.61C1097.47 116.914 1098.09 117.425 1098.53 118.08C1098.96 118.735 1099.19 119.504 1099.19 120.29C1099.19 120.819 1099.08 121.342 1098.88 121.829C1098.67 122.316 1098.37 122.758 1097.99 123.128C1097.62 123.499 1097.17 123.792 1096.68 123.989C1096.19 124.187 1095.66 124.286 1095.13 124.28Z" fill="#6C63FF"/>
<g id="screen">
<path id="Vector_2" d="M609.899 776H305.329C298.47 776.021 291.747 774.085 285.95 770.42C281.302 767.525 277.46 763.504 274.779 758.73C272.099 753.955 270.666 748.582 270.614 743.106V32.916C270.614 14.7661 286.187 7.62939e-06 305.329 7.62939e-06H376.907V6.53272C376.907 20.4746 388.909 31.8174 403.662 31.8174H504.568C510.247 31.8489 515.796 30.121 520.452 26.8711C523.753 24.5921 526.462 21.5573 528.353 18.0196C530.244 14.4819 531.262 10.5436 531.323 6.53271V0H609.899C629.041 0 644.614 14.7661 644.614 32.916V743.106C644.586 747.931 643.473 752.687 641.357 757.023C639.241 761.358 636.176 765.162 632.39 768.152C626.01 773.261 618.072 776.03 609.899 776ZM305.329 2C287.29 2 272.614 15.8691 272.614 32.916V743.106C272.666 748.246 274.015 753.289 276.534 757.768C279.053 762.248 282.662 766.02 287.026 768.734C292.502 772.195 298.851 774.021 305.329 774H609.899C617.615 774.031 625.108 771.419 631.132 766.598C634.686 763.794 637.563 760.227 639.551 756.161C641.538 752.094 642.585 747.633 642.614 743.106V32.916C642.614 15.8691 627.938 2.00001 609.899 2.00001H533.323V6.53272C533.262 10.8667 532.165 15.1233 530.125 18.9473C528.084 22.7712 525.158 26.0516 521.591 28.5146C516.601 31.9978 510.654 33.8502 504.568 33.8174H403.662C387.806 33.8174 374.907 21.5776 374.907 6.5327V2H305.329Z" fill="#3F3D56"/>
<g id="Group 1">
<path id="Vector_3" d="M619.897 60.3704V708.57C619.889 716.292 616.817 723.695 611.355 729.153C605.893 734.611 598.489 737.678 590.767 737.68H327.617C323.791 737.687 320.002 736.939 316.466 735.479C312.93 734.018 309.717 731.875 307.011 729.17C304.305 726.466 302.159 723.255 300.696 719.72C299.234 716.185 298.483 712.396 298.487 708.57V60.3704C298.487 56.5449 299.24 52.7568 300.704 49.2224C302.168 45.688 304.313 42.4766 307.018 39.7716C309.723 37.0666 312.935 34.9209 316.469 33.4571C320.003 31.9933 323.791 31.24 327.617 31.2404H366.997V36.2904C366.996 42.6514 369.522 48.7523 374.019 53.2512C378.516 57.7501 384.616 60.2785 390.977 60.2804H524.817C529.937 60.2913 534.924 58.65 539.037 55.6004C539.868 54.9956 540.657 54.334 541.397 53.6204C543.74 51.3834 545.604 48.6938 546.876 45.7149C548.148 42.7359 548.801 39.5296 548.797 36.2904V31.2404H590.767C594.593 31.2392 598.381 31.9919 601.916 33.4554C605.451 34.9189 608.662 37.0645 611.368 39.7697C614.073 42.4749 616.219 45.6867 617.682 49.2214C619.146 52.7562 619.898 56.5446 619.897 60.3704Z" fill="#F2F2F2"/>
</g>
</g>
<path id="Vector_4" d="M359.992 776.267L358.919 775.865C358.683 775.776 335.211 766.783 324.215 746.391C313.219 725.998 318.603 701.446 318.659 701.2L318.912 700.082L319.985 700.485C320.221 700.573 343.693 709.567 354.689 729.958C365.685 750.351 360.301 774.904 360.245 775.149L359.992 776.267ZM325.976 745.442C335.272 762.683 353.821 771.521 358.521 773.538C359.414 768.501 362.217 748.132 352.928 730.907C343.641 713.685 325.085 704.833 320.384 702.811C319.49 707.851 316.688 728.218 325.976 745.442Z" fill="#3F3D56"/>
<path id="Vector_5" d="M332.618 739.238C352.379 751.126 359.989 774.741 359.989 774.741C359.989 774.741 335.562 779.079 315.801 767.191C296.04 755.302 288.43 731.688 288.43 731.688C288.43 731.688 312.858 727.349 332.618 739.238Z" fill="#6C63FF"/>
<path id="Vector_6" d="M554.114 758.5L524.114 756.5L534.114 801.5L568.114 787.5L554.114 758.5Z" fill="#FFB9B9"/>
<path id="Vector_7" d="M829.114 674.5L759.114 606.5L719.114 637.5L640.114 732.5L649.114 746.5L745.114 681.5L810.114 766.5L872.114 735.5L829.114 674.5Z" fill="#2F2E41"/>
<path id="Vector_8" opacity="0.1" d="M829.114 674.5L759.114 606.5L719.114 637.5L640.114 732.5L649.114 746.5L745.114 681.5L810.114 766.5L872.114 735.5L829.114 674.5Z" fill="black"/>
<path id="Vector_9" d="M835.114 719.5L826.114 726.5L753.114 701.5L736.114 694.5L702.114 701.5C702.114 701.5 702.114 673.5 734.114 674.5L767.114 682.5L806.114 685.5L835.114 719.5Z" fill="#FFB9B9"/>
<path id="Vector_10" d="M900.114 793.5L878.114 807.5H852.114L731.114 762.5L554.114 794.5L549.114 756.5L711.114 685.5L853.114 732.5L900.114 793.5Z" fill="#2F2E41"/>
<path id="Vector_11" d="M758.114 615.5L743.114 618.5L739.845 614.686C737.257 611.667 735.618 607.952 735.132 604.005C734.646 600.059 735.335 596.057 737.114 592.5L779.114 537.5C779.114 537.5 791.114 510.5 810.114 521.5C829.114 532.5 794.114 550.5 794.114 550.5L773.114 583.5L775.114 600.5L758.114 615.5Z" fill="#FFB9B9"/>
<path id="Vector_12" d="M853.114 550.5C874.653 550.5 892.114 533.039 892.114 511.5C892.114 489.961 874.653 472.5 853.114 472.5C831.575 472.5 814.114 489.961 814.114 511.5C814.114 533.039 831.575 550.5 853.114 550.5Z" fill="#FFB9B9"/>
<path id="Vector_13" d="M835.614 540L853.614 583L896.614 565C896.614 565 882.614 531 882.614 530C882.614 529 835.614 540 835.614 540Z" fill="#FFB9B9"/>
<path id="Vector_14" d="M954.024 667.21C954.023 690.747 950.314 714.137 943.034 736.52L940.114 745.5L926.114 809.5L911.114 813.5L900.114 799.5L878.114 783.5L862.114 757.5L848.394 734.64L844.114 727.5L829.114 652.5L772.114 620.5L753.114 617.5L757.114 606.5L774.114 583.5L791.114 581.5L796.114 577.5L800.114 579.5L816.114 570.5L821.114 572.5L850.354 575.22L868.114 571.5L893.654 557.79L904.114 559.5L940.114 589.5C949.317 614.375 954.027 640.687 954.024 667.21Z" fill="#575A89"/>
<path id="Vector_15" d="M822.78 482.502L818.554 484.128C817.904 483.688 817.349 483.122 816.92 482.465C816.491 481.807 816.198 481.071 816.058 480.298C815.917 479.526 815.932 478.734 816.102 477.967C816.272 477.201 816.593 476.476 817.046 475.836L809.237 475.47C814.25 468.794 820.623 463.258 827.935 459.23C835.247 455.201 843.332 452.771 851.653 452.1C859.975 451.429 868.344 452.533 876.207 455.339C884.07 458.145 891.247 462.588 897.264 468.375C897.62 467.151 901.495 469.533 903.078 471.948C903.609 469.956 907.243 479.588 908.528 486.396C909.123 484.129 911.411 487.788 909.407 491.3C910.677 491.114 911.25 494.364 910.267 496.174C911.657 495.521 911.423 499.4 909.916 501.992C911.899 501.816 894.281 529.159 887.147 545.139C885.076 535.622 882.747 525.601 876.068 518.512C874.933 517.307 873.69 516.209 872.449 515.113L865.736 509.188C857.93 502.298 850.829 493.793 840.43 491.218C833.284 489.449 828.765 489.049 832.66 480.996C829.141 482.465 825.855 484.648 822.305 486.012C822.353 484.887 822.849 483.628 822.78 482.502Z" fill="#2F2E41"/>
<path id="Vector_16" d="M533.323 773.985C533.323 773.985 542.279 758.804 538.496 757.032C534.713 755.26 518.647 748.195 518.647 748.195L495.086 740.387C495.086 740.387 461.089 689.86 460.342 733.799C459.596 777.737 485.096 788.299 485.096 788.299C485.096 788.299 507.84 837.244 520.723 829.44C533.606 821.635 546.497 795.14 546.497 795.14C546.497 795.14 523.265 782.652 533.323 773.985Z" fill="#2F2E41"/>
<path id="Vector_17" opacity="0.1" d="M943.114 658.5L905.114 683.5L848.394 734.64L844.114 727.5L832.114 667.5H835.114L866.114 610.5L943.114 658.5Z" fill="black"/>
<path id="Vector_18" d="M866.114 604.5L835.114 661.5H824.114L817.114 681.5L801.114 685.5L844.114 732.5L905.114 677.5L943.114 652.5L866.114 604.5Z" fill="#575A89"/>
<path id="Vector_19" d="M872.614 523C876.48 523 879.614 519.866 879.614 516C879.614 512.134 876.48 509 872.614 509C868.748 509 865.614 512.134 865.614 516C865.614 519.866 868.748 523 872.614 523Z" fill="#FFB9B9"/>
<path id="Vector_20" d="M1088.53 155.225C1086.24 155.189 1084.01 154.475 1082.11 153.173C1080.22 151.871 1078.76 150.04 1077.91 147.909C1077.06 145.778 1076.85 143.443 1077.32 141.197C1077.79 138.95 1078.92 136.893 1080.55 135.283C1082.19 133.673 1084.26 132.583 1086.52 132.148C1088.77 131.714 1091.1 131.955 1093.22 132.842C1095.33 133.729 1097.14 135.222 1098.41 137.133C1099.68 139.043 1100.36 141.287 1100.36 143.583C1100.33 146.694 1099.07 149.667 1096.86 151.85C1094.64 154.032 1091.64 155.246 1088.53 155.225ZM1088.53 133.939C1086.63 133.976 1084.79 134.573 1083.23 135.654C1081.66 136.736 1080.46 138.255 1079.76 140.02C1079.05 141.786 1078.89 143.719 1079.28 145.577C1079.68 147.436 1080.61 149.137 1081.96 150.467C1083.32 151.797 1085.04 152.698 1086.9 153.055C1088.77 153.412 1090.7 153.21 1092.45 152.475C1094.2 151.74 1095.7 150.503 1096.75 148.921C1097.8 147.339 1098.36 145.482 1098.36 143.583C1098.33 141.001 1097.28 138.536 1095.44 136.729C1093.6 134.921 1091.11 133.918 1088.53 133.939Z" fill="#3F3D56"/>
<path id="Vector_21" d="M1102.07 171.189H1075C1071.16 171.193 1067.47 169.687 1064.74 166.998C1063.38 165.686 1062.3 164.115 1061.57 162.377C1060.83 160.64 1060.46 158.772 1060.46 156.886V130.279C1060.46 128.394 1060.84 126.53 1061.57 124.794C1062.31 123.059 1063.38 121.487 1064.73 120.172C1067.46 117.468 1071.15 115.958 1075 115.975H1102.07C1105.91 115.971 1109.59 117.477 1112.33 120.168C1113.68 121.479 1114.76 123.05 1115.5 124.787C1116.23 126.525 1116.61 128.392 1116.61 130.279V156.886C1116.6 158.77 1116.22 160.635 1115.49 162.371C1114.76 164.106 1113.68 165.678 1112.33 166.993C1109.6 169.697 1105.91 171.206 1102.07 171.189ZM1075 117.975C1071.68 117.96 1068.49 119.261 1066.14 121.594C1064.98 122.724 1064.05 124.074 1063.42 125.565C1062.79 127.056 1062.46 128.659 1062.46 130.279V156.886C1062.46 158.505 1062.78 160.109 1063.41 161.6C1064.04 163.092 1064.97 164.441 1066.13 165.566C1068.5 167.891 1071.68 169.192 1075 169.189H1102.07C1105.39 169.205 1108.57 167.903 1110.93 165.571C1112.09 164.441 1113.01 163.091 1113.64 161.6C1114.28 160.108 1114.6 158.506 1114.61 156.886V130.279C1114.61 128.659 1114.29 127.056 1113.65 125.565C1113.02 124.073 1112.1 122.724 1110.93 121.599C1108.57 119.274 1105.39 117.973 1102.07 117.975L1075 117.975ZM1088.53 160.547C1085.19 160.492 1081.94 159.45 1079.18 157.553C1076.43 155.655 1074.3 152.987 1073.06 149.882C1071.82 146.777 1071.52 143.375 1072.21 140.102C1072.89 136.829 1074.53 133.832 1076.91 131.487C1079.3 129.142 1082.32 127.554 1085.6 126.922C1088.89 126.29 1092.28 126.642 1095.37 127.934C1098.45 129.226 1101.09 131.401 1102.94 134.185C1104.79 136.969 1105.78 140.239 1105.78 143.583C1105.74 148.117 1103.9 152.45 1100.66 155.63C1097.43 158.81 1093.07 160.579 1088.53 160.547ZM1088.53 128.618C1085.58 128.673 1082.72 129.597 1080.29 131.275C1077.87 132.953 1076 135.309 1074.9 138.048C1073.81 140.788 1073.56 143.788 1074.17 146.673C1074.78 149.558 1076.22 152.198 1078.33 154.264C1080.43 156.329 1083.1 157.727 1085.99 158.282C1088.89 158.837 1091.88 158.524 1094.6 157.383C1097.32 156.243 1099.64 154.324 1101.27 151.869C1102.91 149.414 1103.78 146.531 1103.78 143.583C1103.74 139.578 1102.11 135.754 1099.25 132.948C1096.39 130.143 1092.54 128.586 1088.53 128.618ZM1106.13 131.279C1105.15 131.265 1104.19 130.961 1103.38 130.404C1102.57 129.848 1101.94 129.063 1101.57 128.15C1101.2 127.237 1101.11 126.235 1101.31 125.272C1101.51 124.308 1101.99 123.425 1102.7 122.734C1103.4 122.043 1104.29 121.574 1105.25 121.387C1106.22 121.2 1107.22 121.303 1108.13 121.683C1109.03 122.063 1109.81 122.702 1110.36 123.522C1110.9 124.341 1111.19 125.303 1111.19 126.288C1111.18 127.62 1110.64 128.894 1109.69 129.829C1108.74 130.765 1107.46 131.286 1106.13 131.279ZM1106.13 123.297C1105.54 123.31 1104.97 123.497 1104.49 123.834C1104.01 124.171 1103.63 124.643 1103.42 125.191C1103.2 125.739 1103.15 126.338 1103.27 126.914C1103.4 127.489 1103.69 128.016 1104.11 128.428C1104.53 128.839 1105.06 129.117 1105.64 129.227C1106.22 129.337 1106.82 129.274 1107.36 129.045C1107.9 128.817 1108.37 128.433 1108.69 127.943C1109.02 127.452 1109.19 126.876 1109.19 126.288C1109.18 125.486 1108.85 124.72 1108.28 124.16C1107.71 123.599 1106.93 123.289 1106.13 123.297Z" fill="#3F3D56"/>
<path id="Vector_22" d="M1087.84 208.283C1051.86 208.283 1022.59 179.509 1022.59 144.142C1022.59 108.774 1051.86 80 1087.84 80C1123.82 80 1153.09 108.774 1153.09 144.142C1153.09 179.509 1123.82 208.283 1087.84 208.283ZM1087.84 82C1052.96 82 1024.59 109.876 1024.59 144.142C1024.59 178.406 1052.96 206.283 1087.84 206.283C1122.71 206.283 1151.09 178.406 1151.09 144.142C1151.09 109.876 1122.71 82 1087.84 82ZM1102.07 176.511H1075C1069.75 176.548 1064.7 174.503 1060.96 170.824C1057.22 167.144 1055.09 162.132 1055.04 156.886V130.279C1055.09 125.033 1057.22 120.02 1060.96 116.341C1064.7 112.662 1069.75 110.617 1075 110.654H1102.07C1107.32 110.617 1112.36 112.662 1116.1 116.341C1119.84 120.02 1121.97 125.033 1122.02 130.279V156.886C1121.97 162.132 1119.84 167.144 1116.1 170.824C1112.36 174.503 1107.32 176.548 1102.07 176.511ZM1075 112.654C1070.28 112.616 1065.74 114.451 1062.38 117.755C1059.01 121.059 1057.09 125.563 1057.04 130.279V156.886C1057.09 161.602 1059.01 166.106 1062.38 169.41C1065.74 172.714 1070.28 174.548 1075 174.511H1102.07C1106.79 174.548 1111.32 172.714 1114.69 169.41C1118.06 166.106 1119.97 161.602 1120.02 156.886V130.279C1119.97 125.563 1118.06 121.059 1114.69 117.755C1111.32 114.451 1106.79 112.616 1102.07 112.654H1075Z" fill="#3F3D56"/>
<path id="Vector_23" d="M1001.81 353.774C989.659 353.821 977.616 351.463 966.376 346.837C935.023 333.767 914.259 305.623 894.18 278.405C883.339 263.711 872.13 248.518 859.326 235.725C838.808 215.225 815.004 201.981 790.489 197.425C762.937 192.303 734.861 198.927 715.387 215.137C712.924 217.19 710.604 219.408 708.443 221.776C711.285 222.122 714.119 222.49 716.946 222.882C746.679 227.002 783.971 238.431 792.769 269.479C796.147 281.396 793.743 294.886 786.175 306.49C778.066 318.923 765.16 327.472 751.653 329.358C749.452 329.665 747.232 329.818 745.01 329.817C720.684 329.818 696.717 311.736 689.621 286.881C683.611 265.832 689.674 241.304 704.461 223.321C686.584 221.284 668.614 220.167 650.623 219.975L650.644 217.975C669.151 218.172 687.635 219.345 706.019 221.487C708.506 218.652 711.211 216.015 714.108 213.6C734.034 197.013 762.724 190.232 790.854 195.458C815.769 200.088 839.935 213.523 860.74 234.31C873.651 247.209 884.905 262.464 895.79 277.218C916.625 305.459 936.303 332.134 967.146 344.991C998.147 357.915 1036.21 352.035 1061.87 330.364C1087.53 308.694 1099.69 272.147 1092.14 239.423L1094.09 238.973C1101.8 272.409 1089.38 309.751 1063.16 331.893C1046.22 346.203 1023.98 353.773 1001.81 353.774ZM706.835 223.598C691.847 241.164 685.599 265.51 691.544 286.332C699.023 312.528 725.867 330.939 751.375 327.378C764.319 325.57 776.702 317.353 784.5 305.397C791.752 294.278 794.065 281.385 790.845 270.023C782.341 240.015 745.815 228.902 716.67 224.863C713.403 224.41 710.125 223.988 706.835 223.598Z" fill="#3F3D56"/>
<path id="Vector_24" d="M226.767 341.004C217.789 341.034 208.836 340.067 200.073 338.121C178.281 333.435 158.702 321.549 144.491 304.377C139.8 298.76 135.527 292.453 131.396 286.354C125.124 277.095 118.639 267.521 110.672 260.397C102.745 253.309 92.3076 249.58 83.4414 250.656C80.2168 251.024 77.1124 252.096 74.3475 253.796C71.5826 255.496 69.2246 257.782 67.44 260.493L65.7876 259.366C67.7299 256.417 70.296 253.931 73.3046 252.083C76.3132 250.235 79.691 249.07 83.1992 248.67C92.7602 247.507 103.535 251.331 112.005 258.906C120.156 266.195 126.712 275.873 133.052 285.232C137.156 291.29 141.399 297.555 146.026 303.095C173.006 335.403 215.861 346.692 263.605 334.07L264.116 336.003C251.933 339.271 239.38 340.951 226.767 341.004Z" fill="#3F3D56"/>
</g>
<defs>
<clipPath id="clip0">
<rect width="1153.09" height="830.283" fill="white"/>
</clipPath>
</defs>
</svg>
