<svg width="1154" height="831" viewBox="0 0 1154 831" fill="none" xmlns="http://www.w3.org/2000/svg">
<g id="undraw_social_sharing_ibwq 1">
<g id="screen">
<path id="Vector" d="M671.937 776H311.676C303.563 776.021 295.612 774.085 288.754 770.42C283.257 767.525 278.712 763.504 275.541 758.73C272.37 753.955 270.675 748.582 270.614 743.106V32.916C270.614 14.7661 289.035 7.62939e-06 311.676 7.62939e-06H396.343V6.53272C396.343 20.4746 410.54 31.8174 427.989 31.8174H547.347C554.064 31.8489 560.627 30.121 566.135 26.8711C570.04 24.5921 573.244 21.5573 575.481 18.0196C577.717 14.4819 578.922 10.5436 578.994 6.53271V0H671.938C694.579 0 713 14.7661 713 32.916V743.106C712.967 747.931 711.65 752.687 709.147 757.023C706.644 761.358 703.019 765.162 698.541 768.152C690.994 773.261 681.605 776.03 671.937 776V776ZM311.676 2C290.339 2 272.979 15.8691 272.979 32.916V743.106C273.042 748.246 274.637 753.289 277.617 757.768C280.597 762.248 284.865 766.02 290.027 768.734C296.504 772.195 304.014 774.021 311.676 774H671.937C681.064 774.031 689.928 771.419 697.053 766.598C701.257 763.794 704.66 760.227 707.011 756.161C709.362 752.094 710.6 747.633 710.634 743.106V32.916C710.634 15.8691 693.275 2.00001 671.937 2.00001H581.359V6.53272C581.287 10.8667 579.99 15.1233 577.576 18.9473C575.162 22.7712 571.702 26.0516 567.483 28.5146C561.58 31.9978 554.546 33.8502 547.347 33.8174H427.99C409.235 33.8174 393.977 21.5776 393.977 6.5327V2H311.676Z" fill="#3F3D56"/>
</g>
<path id="Vector_2" d="M359.992 776.267L358.919 775.865C358.683 775.776 335.211 766.783 324.215 746.391C313.219 725.998 318.603 701.446 318.659 701.2L318.912 700.082L319.985 700.485C320.221 700.573 343.693 709.567 354.689 729.958C365.685 750.351 360.301 774.904 360.245 775.149L359.992 776.267ZM325.976 745.442C335.272 762.683 353.821 771.521 358.521 773.538C359.414 768.501 362.217 748.132 352.928 730.907C343.641 713.685 325.085 704.833 320.384 702.811C319.49 707.851 316.688 728.218 325.976 745.442Z" fill="#3F3D56"/>
<path id="Vector_3" d="M332.618 739.238C352.379 751.126 359.989 774.741 359.989 774.741C359.989 774.741 335.562 779.079 315.801 767.191C296.04 755.302 288.43 731.688 288.43 731.688C288.43 731.688 312.858 727.349 332.618 739.238Z" fill="#6C63FF"/>
</g>
</svg>
